<svg width="28" height="29" viewBox="0 0 28 29" fill="none" xmlns="http://www.w3.org/2000/svg">
<path d="M3.572 26.6467L11.3667 18.852C11.9337 19.004 12.535 18.9646 13.0774 18.74C13.6198 18.5154 14.0729 18.1181 14.3664 17.6097C14.66 17.1013 14.7775 16.5103 14.7009 15.9283C14.6243 15.3462 14.3578 14.8058 13.9427 14.3907C13.5276 13.9755 12.9871 13.709 12.4051 13.6324C11.8231 13.5558 11.232 13.6734 10.7236 13.9669C10.2153 14.2605 9.81795 14.7136 9.59333 15.2559C9.36871 15.7983 9.32935 16.3997 9.48133 16.9667L1.68667 24.7613L0.273335 23.348C4.04267 18.948 5.45733 14.076 7.34267 5.90534L15.828 4.96268L23.3707 12.5053L22.428 20.9907C14.2573 22.876 9.38533 24.2907 4.98667 28.0613L3.572 26.648V26.6467ZM19.128 0.720011L27.5907 9.18134C27.6779 9.2684 27.7392 9.37792 27.768 9.49775C27.7967 9.61758 27.7916 9.74302 27.7534 9.86015C27.7151 9.97728 27.6451 10.0815 27.5512 10.1613C27.4573 10.241 27.3431 10.2932 27.2213 10.312L25.256 10.6187L17.7147 3.07734L17.9973 1.09734C18.0149 0.974905 18.0662 0.85977 18.1455 0.764816C18.2247 0.669861 18.3289 0.598833 18.4462 0.559676C18.5635 0.520519 18.6894 0.514778 18.8099 0.543094C18.9303 0.571409 19.0404 0.632666 19.128 0.720011Z" fill="#86C7DC"/>
</svg>
