<svg width="16" height="18" viewBox="0 0 16 18" fill="none" xmlns="http://www.w3.org/2000/svg">
<path d="M1.33602 0.251997L15.3467 8.42533C15.4471 8.48411 15.5304 8.56814 15.5882 8.66907C15.6461 8.77 15.6765 8.88432 15.6765 9.00066C15.6765 9.11701 15.6461 9.23133 15.5882 9.33226C15.5304 9.43319 15.4471 9.51722 15.3467 9.576L1.33602 17.7493C1.23451 17.8086 1.11914 17.8399 1.00161 17.8402C0.884082 17.8405 0.768567 17.8097 0.666773 17.7509C0.56498 17.6922 0.480526 17.6076 0.421972 17.5057C0.363418 17.4038 0.332844 17.2882 0.33335 17.1707L0.33335 0.827997C0.333315 0.710694 0.364232 0.595459 0.422978 0.493927C0.481724 0.392395 0.56622 0.30816 0.667934 0.249729C0.769647 0.191298 0.884978 0.160738 1.00228 0.161137C1.11958 0.161535 1.2347 0.192877 1.33602 0.251997Z" fill="#B59B79"/>
</svg>
